<?xml version="1.0" encoding="UTF-8" standalone="no"?>
<!DOCTYPE svg PUBLIC "-//W3C//DTD SVG 1.1//EN" "http://www.w3.org/Graphics/SVG/1.1/DTD/svg11.dtd">
<svg width="100%" height="100%" viewBox="0 0 408 408" version="1.1" xmlns="http://www.w3.org/2000/svg" xmlns:xlink="http://www.w3.org/1999/xlink" xml:space="preserve" style="fill-rule:evenodd;clip-rule:evenodd;stroke-linejoin:round;stroke-miterlimit:1.41421;">
    <g transform="matrix(1,0,0,1,-45.4856,-64.2031)">
        <g transform="matrix(0.742187,3.67853e-32,3.67853e-32,0.742188,59.4856,78.2031)">
            <path d="M107.644,470.877L74.633,100.62L437.367,100.62L404.321,470.819L255.778,512L107.644,470.877Z" style="fill:rgb(228,77,38);fill-rule:nonzero;"/>
        </g>
        <g transform="matrix(0.742187,3.67853e-32,3.67853e-32,0.742188,59.4856,78.2031)">
            <path d="M256,480.523L376.03,447.246L404.27,130.894L256,130.894L256,480.523Z" style="fill:rgb(241,101,41);fill-rule:nonzero;"/>
        </g>
        <g transform="matrix(0.742187,3.67853e-32,3.67853e-32,0.742188,59.4856,78.2031)">
            <path d="M256,268.217L195.91,268.217L191.76,221.716L256,221.716L256,176.305L255.843,176.305L142.132,176.305L143.219,188.488L154.38,313.627L256,313.627L256,268.217Z" style="fill:rgb(235,235,235);fill-rule:nonzero;"/>
        </g>
        <g transform="matrix(0.742187,3.67853e-32,3.67853e-32,0.742188,59.4856,78.2031)">
            <path d="M256,386.153L255.801,386.206L205.227,372.55L201.994,336.333L177.419,336.333L156.409,336.333L162.771,407.634L255.791,433.457L256,433.399L256,386.153Z" style="fill:rgb(235,235,235);fill-rule:nonzero;"/>
        </g>
        <g transform="matrix(0.742187,3.67853e-32,3.67853e-32,0.742188,59.4856,78.2031)">
            <path d="M108.382,0L131.459,0L131.459,22.8L152.569,22.8L152.569,0L175.647,0L175.647,69.044L152.57,69.044L152.57,45.924L131.46,45.924L131.46,69.044L108.383,69.044L108.383,0L108.382,0Z" style="fill:black;fill-rule:nonzero;"/>
        </g>
        <g transform="matrix(0.742187,3.67853e-32,3.67853e-32,0.742188,59.4856,78.2031)">
            <path d="M205.994,22.896L185.678,22.896L185.678,0L249.398,0L249.398,22.896L229.073,22.896L229.073,69.044L205.995,69.044L205.995,22.896L205.994,22.896Z" style="fill:black;fill-rule:nonzero;"/>
        </g>
        <g transform="matrix(0.742187,3.67853e-32,3.67853e-32,0.742188,59.4856,78.2031)">
            <path d="M259.511,0L283.574,0L298.376,24.26L313.163,0L337.235,0L337.235,69.044L314.253,69.044L314.253,34.822L298.376,59.371L297.979,59.371L282.091,34.822L282.091,69.044L259.511,69.044L259.511,0L259.511,0Z" style="fill:black;fill-rule:nonzero;"/>
        </g>
        <g transform="matrix(0.742187,3.67853e-32,3.67853e-32,0.742188,59.4856,78.2031)">
            <path d="M348.72,0L371.804,0L371.804,46.222L404.257,46.222L404.257,69.044L348.72,69.044L348.72,0Z" style="fill:black;fill-rule:nonzero;"/>
        </g>
        <g transform="matrix(0.742187,3.67853e-32,3.67853e-32,0.742188,59.4856,78.2031)">
            <path d="M255.843,268.217L255.843,313.627L311.761,313.627L306.49,372.521L255.843,386.191L255.843,433.435L348.937,407.634L349.62,399.962L360.291,280.411L361.399,268.217L349.162,268.217L255.843,268.217Z" style="fill:white;fill-rule:nonzero;"/>
        </g>
        <g transform="matrix(0.742187,3.67853e-32,3.67853e-32,0.742188,59.4856,78.2031)">
            <path d="M255.843,176.305L255.843,221.716L365.531,221.716L366.442,211.509L368.511,188.488L369.597,176.305L255.843,176.305Z" style="fill:white;fill-rule:nonzero;"/>
        </g>
    </g>
</svg>
